# xmcd
#
# Track frame offsets: 
#        150
#        28625
#        48054
#        67299
#        91290
#        119071
#        141310
#        172138
#        195926
#        216200
#        248805
#        289105
#
# Disc length: 4316 seconds
#
# Revision: 2
# Processed by: cddbd v1.5.2PL0 Copyright (c) Steve Scherf et al.
# Submitted via: ExactAudioCopy v0.95a5
#
DISCID=b810da0c
DTITLE=Walker (Joe Louis) - Witness To The Blues
DYEAR=2008
DGENRE=Blues
TTITLE0=It'S A Shame
TTITLE1=Midnight Train
TTITLE2=Lover'S Holiday ( Duet With Shemekia Copeland)
TTITLE3=Hustlin'
TTITLE4=Witness
TTITLE5=Rollin' and Tumblin'
TTITLE6=Highview
TTITLE7=I Got What You Need
TTITLE8=Keep On Believin'
TTITLE9=100% More Man
TTITLE10=Sugar Mama
TTITLE11=Video
EXTD=Produced by Duke Robillard\n\nDuke Robillard Guitar on 1, 6, 7, 8
EXTD=, 11
EXTT0=
EXTT1=
EXTT2=
EXTT3=
EXTT4=
EXTT5=
EXTT6=
EXTT7=
EXTT8=
EXTT9=
EXTT10=
EXTT11=
PLAYORDER=
